<?xml version="1.0" encoding="utf-8"?>
<!-- Generator: Adobe Illustrator 18.1.1, SVG Export Plug-In . SVG Version: 6.00 Build 0)  -->
<svg version="1.1" id="Layer_1" xmlns="http://www.w3.org/2000/svg" xmlns:xlink="http://www.w3.org/1999/xlink" x="0px" y="0px"
	 viewBox="0 0 500 500" enable-background="new 0 0 500 500" xml:space="preserve">
<g>
	<g>
		<path d="M415.5,148.9h-331c-5.2,0-9.5-4.3-9.5-9.5v-1c0-5.2,4.3-9.5,9.5-9.5h331c5.2,0,9.5,4.3,9.5,9.5v1
			C425,144.6,420.7,148.9,415.5,148.9z"/>
		<circle fill="#FFFFFF" stroke="#000000" stroke-width="20" stroke-miterlimit="10" cx="361.2" cy="141.2" r="27"/>
	</g>
	<g>
		<path d="M85,263.4h330c5.5,0,10-4.5,10-10v0c0-5.5-4.5-10-10-10H85c-5.5,0-10,4.5-10,10v0C75,258.9,79.5,263.4,85,263.4z"/>
		<circle fill="#FFFFFF" stroke="#000000" stroke-width="20" stroke-miterlimit="10" cx="138.8" cy="255.7" r="27"/>
	</g>
	<g>
		<path d="M415,378.6H85c-5.5,0-10-4.5-10-10v0c0-5.5,4.5-10,10-10h330c5.5,0,10,4.5,10,10v0C425,374.1,420.5,378.6,415,378.6z"/>
		<circle fill="#FFFFFF" stroke="#000000" stroke-width="20" stroke-miterlimit="10" cx="250.2" cy="370.2" r="27"/>
	</g>
</g>
</svg>
