<?xml version="1.0" encoding="utf-8"?>
<!-- Generator: Adobe Illustrator 18.1.1, SVG Export Plug-In . SVG Version: 6.00 Build 0)  -->
<svg version="1.1" id="Layer_1" xmlns="http://www.w3.org/2000/svg" xmlns:xlink="http://www.w3.org/1999/xlink" x="0px" y="0px"
	 viewBox="-0.2 46.8 500.2 406.5" enable-background="new -0.2 46.8 500.2 406.5" xml:space="preserve">
<path fill="#666666" d="M500,94.9c-18.5,8.2-38.2,13.7-58.9,16.1c21.2-12.6,37.5-32.7,45.2-56.7C466.3,66,444.4,74.6,421,79.2
	c-19.4-20.7-46.5-32.4-74.8-32.4c-56.7,0-102.6,45.9-102.6,102.6c0,8,0.9,15.9,2.7,23.4c-85.4-4.4-160.9-45.2-211.6-107.2
	C26,80.8,20.8,98.4,20.8,117.2c0,35.7,18.1,66.9,45.7,85.4c-16.8-0.5-32.6-5.1-46.5-12.8v1.3c0,49.7,35.3,91.1,82.3,100.6
	c-8.6,2.4-17.7,3.7-27.1,3.7c-6.6,0-13-0.7-19.4-1.8c13,40.8,51,70.4,95.8,71.3c-35.1,27.4-79.4,43.9-127.5,43.9
	c-8.2,0-16.5-0.5-24.5-1.5c45.4,29.1,99.3,46.1,157.3,46.1C345.8,453.4,449,297,449,161.5c0-4.4-0.2-9-0.4-13.4
	C468.9,133.5,486.3,115.4,500,94.9L500,94.9z"/>
</svg>
